<mxfile host="Electron" agent="Mozilla/5.0 (Windows NT 10.0; Win64; x64) AppleWebKit/537.36 (KHTML, like Gecko) draw.io/27.0.9 Chrome/134.0.6998.205 Electron/35.4.0 Safari/537.36" version="27.0.9">
  <diagram name="Página-1" id="QSMov_5B1xX8RwiM7HE0">
    <mxGraphModel dx="450" dy="338" grid="1" gridSize="10" guides="1" tooltips="1" connect="1" arrows="1" fold="1" page="1" pageScale="1" pageWidth="520" pageHeight="1000" math="0" shadow="0">
      <root>
        <mxCell id="0" />
        <mxCell id="1" parent="0" />
        <mxCell id="DyJlNFvKHPlh27G0L0hB-2" value="" style="whiteSpace=wrap;html=1;aspect=fixed;" parent="1" vertex="1">
          <mxGeometry x="170" y="200" width="815" height="815" as="geometry" />
        </mxCell>
        <mxCell id="DyJlNFvKHPlh27G0L0hB-3" value="CibusApp" style="text;strokeColor=none;fillColor=none;html=1;fontSize=24;fontStyle=1;verticalAlign=middle;align=center;" parent="1" vertex="1">
          <mxGeometry x="180" y="200" width="120" height="60" as="geometry" />
        </mxCell>
        <mxCell id="DyJlNFvKHPlh27G0L0hB-4" value="Administrador" style="shape=umlActor;verticalLabelPosition=bottom;verticalAlign=top;html=1;outlineConnect=0;" parent="1" vertex="1">
          <mxGeometry x="80" y="530" width="40" height="70" as="geometry" />
        </mxCell>
        <mxCell id="DyJlNFvKHPlh27G0L0hB-7" value="UC1 -&amp;nbsp;Iniciar sesión" style="ellipse;whiteSpace=wrap;html=1;" parent="1" vertex="1">
          <mxGeometry x="240" y="540" width="120" height="80" as="geometry" />
        </mxCell>
        <mxCell id="DyJlNFvKHPlh27G0L0hB-8" value="UC4 -&amp;nbsp;Agregar nuevo Administrador" style="ellipse;whiteSpace=wrap;html=1;" parent="1" vertex="1">
          <mxGeometry x="460" y="220" width="120" height="80" as="geometry" />
        </mxCell>
        <mxCell id="DyJlNFvKHPlh27G0L0hB-9" value="" style="endArrow=none;html=1;rounded=0;entryX=0;entryY=0.5;entryDx=0;entryDy=0;" parent="1" target="DyJlNFvKHPlh27G0L0hB-7" edge="1">
          <mxGeometry width="50" height="50" relative="1" as="geometry">
            <mxPoint x="130" y="580" as="sourcePoint" />
            <mxPoint x="460" y="470" as="targetPoint" />
          </mxGeometry>
        </mxCell>
        <mxCell id="DyJlNFvKHPlh27G0L0hB-10" value="UC5 -&amp;nbsp;Eliminar Administrador" style="ellipse;whiteSpace=wrap;html=1;" parent="1" vertex="1">
          <mxGeometry x="460" y="310" width="120" height="80" as="geometry" />
        </mxCell>
        <mxCell id="DyJlNFvKHPlh27G0L0hB-11" value="UC2 -&amp;nbsp;Administrar miembros" style="ellipse;whiteSpace=wrap;html=1;" parent="1" vertex="1">
          <mxGeometry x="250" y="390" width="120" height="80" as="geometry" />
        </mxCell>
        <mxCell id="DyJlNFvKHPlh27G0L0hB-13" value="&amp;lt;&amp;lt;extend&amp;gt;&amp;gt;" style="html=1;verticalAlign=bottom;labelBackgroundColor=none;endArrow=open;endFill=0;dashed=1;rounded=0;exitX=0.449;exitY=1.013;exitDx=0;exitDy=0;exitPerimeter=0;entryX=0.54;entryY=0.001;entryDx=0;entryDy=0;entryPerimeter=0;" parent="1" source="DyJlNFvKHPlh27G0L0hB-11" target="DyJlNFvKHPlh27G0L0hB-7" edge="1">
          <mxGeometry width="160" relative="1" as="geometry">
            <mxPoint x="467" y="440" as="sourcePoint" />
            <mxPoint x="410" y="535" as="targetPoint" />
          </mxGeometry>
        </mxCell>
        <mxCell id="DyJlNFvKHPlh27G0L0hB-14" value="&amp;lt;&amp;lt;extend&amp;gt;&amp;gt;" style="html=1;verticalAlign=bottom;labelBackgroundColor=none;endArrow=open;endFill=0;dashed=1;rounded=0;exitX=0.024;exitY=0.448;exitDx=0;exitDy=0;entryX=0.887;entryY=0.805;entryDx=0;entryDy=0;entryPerimeter=0;exitPerimeter=0;" parent="1" source="DyJlNFvKHPlh27G0L0hB-10" target="DyJlNFvKHPlh27G0L0hB-33" edge="1">
          <mxGeometry width="160" relative="1" as="geometry">
            <mxPoint x="584" y="440" as="sourcePoint" />
            <mxPoint x="500" y="420" as="targetPoint" />
          </mxGeometry>
        </mxCell>
        <mxCell id="DyJlNFvKHPlh27G0L0hB-15" value="&amp;lt;&amp;lt;extend&amp;gt;&amp;gt;" style="html=1;verticalAlign=bottom;labelBackgroundColor=none;endArrow=open;endFill=0;dashed=1;rounded=0;exitX=-0.008;exitY=0.595;exitDx=0;exitDy=0;exitPerimeter=0;entryX=1;entryY=0.375;entryDx=0;entryDy=0;entryPerimeter=0;" parent="1" source="DyJlNFvKHPlh27G0L0hB-8" target="DyJlNFvKHPlh27G0L0hB-33" edge="1">
          <mxGeometry width="160" relative="1" as="geometry">
            <mxPoint x="694" y="480" as="sourcePoint" />
            <mxPoint x="460" y="340" as="targetPoint" />
          </mxGeometry>
        </mxCell>
        <mxCell id="DyJlNFvKHPlh27G0L0hB-16" value="UC17 -&amp;nbsp;Cerrar Sesión" style="ellipse;whiteSpace=wrap;html=1;" parent="1" vertex="1">
          <mxGeometry x="240" y="700" width="120" height="80" as="geometry" />
        </mxCell>
        <mxCell id="DyJlNFvKHPlh27G0L0hB-18" value="UC11 -&amp;nbsp;Asignar menú acorde a horario" style="ellipse;whiteSpace=wrap;html=1;" parent="1" vertex="1">
          <mxGeometry x="850" y="560" width="120" height="80" as="geometry" />
        </mxCell>
        <mxCell id="DyJlNFvKHPlh27G0L0hB-22" value="UC12 -&amp;nbsp;Añadir datos para el menú" style="ellipse;whiteSpace=wrap;html=1;" parent="1" vertex="1">
          <mxGeometry x="850" y="410" width="120" height="80" as="geometry" />
        </mxCell>
        <mxCell id="DyJlNFvKHPlh27G0L0hB-24" value="UC13 -&amp;nbsp;Publicar horarios" style="ellipse;whiteSpace=wrap;html=1;" parent="1" vertex="1">
          <mxGeometry x="840" y="280" width="120" height="80" as="geometry" />
        </mxCell>
        <mxCell id="DyJlNFvKHPlh27G0L0hB-26" value="&amp;lt;&amp;lt;include&amp;gt;&amp;gt;" style="html=1;verticalAlign=bottom;labelBackgroundColor=none;endArrow=open;endFill=0;dashed=1;rounded=0;exitX=0.5;exitY=0;exitDx=0;exitDy=0;entryX=0.535;entryY=0.991;entryDx=0;entryDy=0;entryPerimeter=0;" parent="1" source="DyJlNFvKHPlh27G0L0hB-22" target="DyJlNFvKHPlh27G0L0hB-24" edge="1">
          <mxGeometry width="160" relative="1" as="geometry">
            <mxPoint x="880" y="466" as="sourcePoint" />
            <mxPoint x="942" y="460" as="targetPoint" />
          </mxGeometry>
        </mxCell>
        <mxCell id="DyJlNFvKHPlh27G0L0hB-27" value="&amp;lt;&amp;lt;extend&amp;gt;&amp;gt;" style="html=1;verticalAlign=bottom;labelBackgroundColor=none;endArrow=open;endFill=0;dashed=1;rounded=0;entryX=0.468;entryY=1.013;entryDx=0;entryDy=0;entryPerimeter=0;" parent="1" source="DyJlNFvKHPlh27G0L0hB-16" target="DyJlNFvKHPlh27G0L0hB-7" edge="1">
          <mxGeometry width="160" relative="1" as="geometry">
            <mxPoint x="494" y="530" as="sourcePoint" />
            <mxPoint x="440" y="590" as="targetPoint" />
          </mxGeometry>
        </mxCell>
        <mxCell id="DyJlNFvKHPlh27G0L0hB-28" value="&amp;nbsp;UC9 -&amp;nbsp;Asignar turnos" style="ellipse;whiteSpace=wrap;html=1;" parent="1" vertex="1">
          <mxGeometry x="450" y="560" width="120" height="80" as="geometry" />
        </mxCell>
        <mxCell id="DyJlNFvKHPlh27G0L0hB-30" value="UC10 -&amp;nbsp;Asignar Horario" style="ellipse;whiteSpace=wrap;html=1;" parent="1" vertex="1">
          <mxGeometry x="640" y="560" width="120" height="80" as="geometry" />
        </mxCell>
        <mxCell id="DyJlNFvKHPlh27G0L0hB-32" value="&amp;lt;&amp;lt;include&amp;gt;&amp;gt;" style="html=1;verticalAlign=bottom;labelBackgroundColor=none;endArrow=open;endFill=0;dashed=1;rounded=0;exitX=1;exitY=0.5;exitDx=0;exitDy=0;entryX=0;entryY=0.5;entryDx=0;entryDy=0;" parent="1" source="DyJlNFvKHPlh27G0L0hB-30" target="DyJlNFvKHPlh27G0L0hB-18" edge="1">
          <mxGeometry width="160" relative="1" as="geometry">
            <mxPoint x="620" y="620" as="sourcePoint" />
            <mxPoint x="673" y="632" as="targetPoint" />
          </mxGeometry>
        </mxCell>
        <mxCell id="DyJlNFvKHPlh27G0L0hB-33" value="UC3 -&amp;nbsp;Ver miembros" style="ellipse;whiteSpace=wrap;html=1;" parent="1" vertex="1">
          <mxGeometry x="250" y="260" width="120" height="80" as="geometry" />
        </mxCell>
        <mxCell id="DyJlNFvKHPlh27G0L0hB-34" value="&amp;lt;&amp;lt;include&amp;gt;&amp;gt;" style="html=1;verticalAlign=bottom;labelBackgroundColor=none;endArrow=open;endFill=0;dashed=1;rounded=0;entryX=0.5;entryY=1;entryDx=0;entryDy=0;" parent="1" source="DyJlNFvKHPlh27G0L0hB-11" target="DyJlNFvKHPlh27G0L0hB-33" edge="1">
          <mxGeometry width="160" relative="1" as="geometry">
            <mxPoint x="520" y="380" as="sourcePoint" />
            <mxPoint x="573" y="382" as="targetPoint" />
          </mxGeometry>
        </mxCell>
        <mxCell id="DyJlNFvKHPlh27G0L0hB-36" value="UC14 -&amp;nbsp;Seleccionar &quot;Reporte&quot;" style="ellipse;whiteSpace=wrap;html=1;" parent="1" vertex="1">
          <mxGeometry x="440" y="670" width="120" height="80" as="geometry" />
        </mxCell>
        <mxCell id="DyJlNFvKHPlh27G0L0hB-37" value="UC15 -&amp;nbsp;Generar reporte" style="ellipse;whiteSpace=wrap;html=1;" parent="1" vertex="1">
          <mxGeometry x="640" y="670" width="120" height="80" as="geometry" />
        </mxCell>
        <mxCell id="DyJlNFvKHPlh27G0L0hB-40" value="&amp;lt;&amp;lt;extend&amp;gt;&amp;gt;" style="html=1;verticalAlign=bottom;labelBackgroundColor=none;endArrow=open;endFill=0;dashed=1;rounded=0;exitX=0;exitY=0.5;exitDx=0;exitDy=0;entryX=0.98;entryY=0.573;entryDx=0;entryDy=0;entryPerimeter=0;" parent="1" source="DyJlNFvKHPlh27G0L0hB-37" target="DyJlNFvKHPlh27G0L0hB-36" edge="1">
          <mxGeometry width="160" relative="1" as="geometry">
            <mxPoint x="670" y="740" as="sourcePoint" />
            <mxPoint x="650" y="791" as="targetPoint" />
          </mxGeometry>
        </mxCell>
        <mxCell id="DyJlNFvKHPlh27G0L0hB-42" value="&amp;nbsp;UC17 -&amp;nbsp;Registrar consumo diario" style="ellipse;whiteSpace=wrap;html=1;" parent="1" vertex="1">
          <mxGeometry x="540" y="880" width="120" height="80" as="geometry" />
        </mxCell>
        <mxCell id="DyJlNFvKHPlh27G0L0hB-43" value="&amp;lt;&amp;lt;extend&amp;gt;&amp;gt;" style="html=1;verticalAlign=bottom;labelBackgroundColor=none;endArrow=open;endFill=0;dashed=1;rounded=0;exitX=0.235;exitY=0.08;exitDx=0;exitDy=0;exitPerimeter=0;entryX=0.558;entryY=0.984;entryDx=0;entryDy=0;entryPerimeter=0;" parent="1" source="DyJlNFvKHPlh27G0L0hB-42" target="DyJlNFvKHPlh27G0L0hB-36" edge="1">
          <mxGeometry width="160" relative="1" as="geometry">
            <mxPoint x="784" y="880" as="sourcePoint" />
            <mxPoint x="660" y="820" as="targetPoint" />
          </mxGeometry>
        </mxCell>
        <mxCell id="DyJlNFvKHPlh27G0L0hB-44" value="UC18 -&amp;nbsp;Añadir datos correspondientes" style="ellipse;whiteSpace=wrap;html=1;" parent="1" vertex="1">
          <mxGeometry x="770" y="890" width="120" height="80" as="geometry" />
        </mxCell>
        <mxCell id="DyJlNFvKHPlh27G0L0hB-45" value="&amp;lt;&amp;lt;include&amp;gt;&amp;gt;" style="html=1;verticalAlign=bottom;labelBackgroundColor=none;endArrow=open;endFill=0;dashed=1;rounded=0;exitX=1;exitY=0.625;exitDx=0;exitDy=0;exitPerimeter=0;entryX=0;entryY=0.5;entryDx=0;entryDy=0;" parent="1" source="DyJlNFvKHPlh27G0L0hB-42" target="DyJlNFvKHPlh27G0L0hB-44" edge="1">
          <mxGeometry width="160" relative="1" as="geometry">
            <mxPoint x="750" y="921" as="sourcePoint" />
            <mxPoint x="877" y="920" as="targetPoint" />
          </mxGeometry>
        </mxCell>
        <mxCell id="DyJlNFvKHPlh27G0L0hB-46" value="UC19 -&amp;nbsp;Subir datos" style="ellipse;whiteSpace=wrap;html=1;" parent="1" vertex="1">
          <mxGeometry x="770" y="770" width="120" height="80" as="geometry" />
        </mxCell>
        <mxCell id="DyJlNFvKHPlh27G0L0hB-47" value="&amp;lt;&amp;lt;include&amp;gt;&amp;gt;" style="html=1;verticalAlign=bottom;labelBackgroundColor=none;endArrow=open;endFill=0;dashed=1;rounded=0;exitX=0.5;exitY=0;exitDx=0;exitDy=0;entryX=0.5;entryY=1;entryDx=0;entryDy=0;" parent="1" source="DyJlNFvKHPlh27G0L0hB-44" target="DyJlNFvKHPlh27G0L0hB-46" edge="1">
          <mxGeometry width="160" relative="1" as="geometry">
            <mxPoint x="930" y="900" as="sourcePoint" />
            <mxPoint x="1000" y="910" as="targetPoint" />
          </mxGeometry>
        </mxCell>
        <mxCell id="DyJlNFvKHPlh27G0L0hB-48" value="UC16 -&amp;nbsp;Descargar reporte" style="ellipse;whiteSpace=wrap;html=1;" parent="1" vertex="1">
          <mxGeometry x="820" y="660" width="120" height="80" as="geometry" />
        </mxCell>
        <mxCell id="DyJlNFvKHPlh27G0L0hB-49" value="&amp;lt;&amp;lt;extend&amp;gt;&amp;gt;" style="html=1;verticalAlign=bottom;labelBackgroundColor=none;endArrow=open;endFill=0;dashed=1;rounded=0;exitX=0.023;exitY=0.552;exitDx=0;exitDy=0;exitPerimeter=0;entryX=0.977;entryY=0.434;entryDx=0;entryDy=0;entryPerimeter=0;" parent="1" source="DyJlNFvKHPlh27G0L0hB-48" target="DyJlNFvKHPlh27G0L0hB-37" edge="1">
          <mxGeometry width="160" relative="1" as="geometry">
            <mxPoint x="873" y="694" as="sourcePoint" />
            <mxPoint x="790" y="690" as="targetPoint" />
          </mxGeometry>
        </mxCell>
        <mxCell id="DyJlNFvKHPlh27G0L0hB-52" value="UC6 - Seleccionar &quot;Inventario&quot;" style="ellipse;whiteSpace=wrap;html=1;" parent="1" vertex="1">
          <mxGeometry x="420" y="420" width="120" height="80" as="geometry" />
        </mxCell>
        <mxCell id="DyJlNFvKHPlh27G0L0hB-54" value="UC7 - Actualizar datos de insumos" style="ellipse;whiteSpace=wrap;html=1;" parent="1" vertex="1">
          <mxGeometry x="640" y="310" width="120" height="80" as="geometry" />
        </mxCell>
        <mxCell id="DyJlNFvKHPlh27G0L0hB-56" value="&amp;lt;&amp;lt;include&amp;gt;&amp;gt;" style="html=1;verticalAlign=bottom;labelBackgroundColor=none;endArrow=open;endFill=0;dashed=1;rounded=0;entryX=0.5;entryY=1;entryDx=0;entryDy=0;" parent="1" source="DyJlNFvKHPlh27G0L0hB-18" target="DyJlNFvKHPlh27G0L0hB-22" edge="1">
          <mxGeometry width="160" relative="1" as="geometry">
            <mxPoint x="740" y="530" as="sourcePoint" />
            <mxPoint x="803" y="530" as="targetPoint" />
          </mxGeometry>
        </mxCell>
        <mxCell id="DyJlNFvKHPlh27G0L0hB-59" value="&amp;lt;&amp;lt;extend&amp;gt;&amp;gt;" style="html=1;verticalAlign=bottom;labelBackgroundColor=none;endArrow=open;endFill=0;dashed=1;rounded=0;exitX=0.08;exitY=0.802;exitDx=0;exitDy=0;entryX=0.98;entryY=0.305;entryDx=0;entryDy=0;entryPerimeter=0;exitPerimeter=0;" parent="1" source="DyJlNFvKHPlh27G0L0hB-54" target="DyJlNFvKHPlh27G0L0hB-52" edge="1">
          <mxGeometry width="160" relative="1" as="geometry">
            <mxPoint x="565.6399999999999" y="442" as="sourcePoint" />
            <mxPoint x="630" y="460" as="targetPoint" />
          </mxGeometry>
        </mxCell>
        <mxCell id="DyJlNFvKHPlh27G0L0hB-61" value="UC8 - Visualizar Inventario" style="ellipse;whiteSpace=wrap;html=1;" parent="1" vertex="1">
          <mxGeometry x="670" y="400" width="120" height="80" as="geometry" />
        </mxCell>
        <mxCell id="DyJlNFvKHPlh27G0L0hB-63" value="&amp;lt;&amp;lt;include&amp;gt;&amp;gt;" style="html=1;verticalAlign=bottom;labelBackgroundColor=none;endArrow=open;endFill=0;dashed=1;rounded=0;entryX=0;entryY=0.5;entryDx=0;entryDy=0;" parent="1" source="DyJlNFvKHPlh27G0L0hB-52" target="DyJlNFvKHPlh27G0L0hB-61" edge="1">
          <mxGeometry width="160" relative="1" as="geometry">
            <mxPoint x="620" y="530" as="sourcePoint" />
            <mxPoint x="723" y="530" as="targetPoint" />
          </mxGeometry>
        </mxCell>
        <mxCell id="PiWVxqf-ug7csqYTQ7Iz-1" value="&amp;lt;&amp;lt;extend&amp;gt;&amp;gt;" style="html=1;verticalAlign=bottom;labelBackgroundColor=none;endArrow=open;endFill=0;dashed=1;rounded=0;exitX=0.083;exitY=0.75;exitDx=0;exitDy=0;exitPerimeter=0;entryX=0.934;entryY=0.206;entryDx=0;entryDy=0;entryPerimeter=0;" parent="1" source="DyJlNFvKHPlh27G0L0hB-52" target="DyJlNFvKHPlh27G0L0hB-7" edge="1">
          <mxGeometry width="160" relative="1" as="geometry">
            <mxPoint x="430" y="500" as="sourcePoint" />
            <mxPoint x="431" y="569" as="targetPoint" />
          </mxGeometry>
        </mxCell>
        <mxCell id="PiWVxqf-ug7csqYTQ7Iz-2" value="&amp;lt;&amp;lt;extend&amp;gt;&amp;gt;" style="html=1;verticalAlign=bottom;labelBackgroundColor=none;endArrow=open;endFill=0;dashed=1;rounded=0;exitX=0.018;exitY=0.405;exitDx=0;exitDy=0;exitPerimeter=0;entryX=1;entryY=0.5;entryDx=0;entryDy=0;" parent="1" source="DyJlNFvKHPlh27G0L0hB-28" target="DyJlNFvKHPlh27G0L0hB-7" edge="1">
          <mxGeometry width="160" relative="1" as="geometry">
            <mxPoint x="390" y="550" as="sourcePoint" />
            <mxPoint x="391" y="619" as="targetPoint" />
          </mxGeometry>
        </mxCell>
        <mxCell id="PiWVxqf-ug7csqYTQ7Iz-3" value="&amp;lt;&amp;lt;extend&amp;gt;&amp;gt;" style="html=1;verticalAlign=bottom;labelBackgroundColor=none;endArrow=open;endFill=0;dashed=1;rounded=0;exitX=0.049;exitY=0.228;exitDx=0;exitDy=0;exitPerimeter=0;entryX=0.883;entryY=0.784;entryDx=0;entryDy=0;entryPerimeter=0;" parent="1" source="DyJlNFvKHPlh27G0L0hB-36" target="DyJlNFvKHPlh27G0L0hB-7" edge="1">
          <mxGeometry width="160" relative="1" as="geometry">
            <mxPoint x="400" y="620" as="sourcePoint" />
            <mxPoint x="401" y="689" as="targetPoint" />
          </mxGeometry>
        </mxCell>
        <mxCell id="8W56Lj8lNrbte4S6fjlq-1" value="UC20 - Consultar Horario" style="ellipse;whiteSpace=wrap;html=1;" vertex="1" parent="1">
          <mxGeometry x="580" y="470" width="120" height="80" as="geometry" />
        </mxCell>
        <mxCell id="8W56Lj8lNrbte4S6fjlq-3" value="&amp;lt;&amp;lt;include&amp;gt;&amp;gt;" style="html=1;verticalAlign=bottom;labelBackgroundColor=none;endArrow=open;endFill=0;dashed=1;rounded=0;exitX=0.782;exitY=0.09;exitDx=0;exitDy=0;exitPerimeter=0;entryX=0.119;entryY=0.846;entryDx=0;entryDy=0;entryPerimeter=0;" edge="1" parent="1" source="DyJlNFvKHPlh27G0L0hB-28" target="8W56Lj8lNrbte4S6fjlq-1">
          <mxGeometry width="160" relative="1" as="geometry">
            <mxPoint x="650" y="570" as="sourcePoint" />
            <mxPoint x="783" y="570" as="targetPoint" />
          </mxGeometry>
        </mxCell>
        <mxCell id="8W56Lj8lNrbte4S6fjlq-4" value="&amp;lt;&amp;lt;extend&amp;gt;&amp;gt;" style="html=1;verticalAlign=bottom;labelBackgroundColor=none;endArrow=open;endFill=0;dashed=1;rounded=0;exitX=0;exitY=0.5;exitDx=0;exitDy=0;" edge="1" parent="1" source="DyJlNFvKHPlh27G0L0hB-30" target="DyJlNFvKHPlh27G0L0hB-28">
          <mxGeometry width="160" relative="1" as="geometry">
            <mxPoint x="682" y="530" as="sourcePoint" />
            <mxPoint x="570" y="600" as="targetPoint" />
          </mxGeometry>
        </mxCell>
      </root>
    </mxGraphModel>
  </diagram>
</mxfile>
